# xmcd CD database file
#
# Track frame offsets:
#	150
#	23930
#	42411
#	52270
#	67645
#	85560
#	98024
#	113451
#	133713
#	146064
#	158254
#	178269
#	207566
#	223920
#	241827
#	253347
#
# Disc length: 3595 seconds
#
# Revision: 0
# Processed by: cddbd v1.5.2PL0 Copyright (c) Steve Scherf et al.
# Submitted via: CDex 1.70beta2
#
DISCID=e10e0910
DTITLE=Joachim Kühn - Free Ibiza
DYEAR=2010
DGENRE=Jazz
TTITLE0=Figuertas
TTITLE1=Mar Y Sal Nights
TTITLE2=Casa Nuestro
TTITLE3=Flamingos At Cap Des Falco
TTITLE4=Can Masia
TTITLE5=Free Ibiza Afternoon
TTITLE6=Es Cavavallet
TTITLE7=August In Ibiza
TTITLE8=Talamanca
TTITLE9=Free Ibiza Night
TTITLE10=Clean Vision
TTITLE11=Benirras
TTITLE12=Free Ibiza Early Morning
TTITLE13=Salinas Waves
TTITLE14=Erissa
TTITLE15=Moment Of Happiness
EXTD=YEAR: 2010
EXTT0=
EXTT1=
EXTT2=
EXTT3=
EXTT4=
EXTT5=
EXTT6=
EXTT7=
EXTT8=
EXTT9=
EXTT10=
EXTT11=
EXTT12=
EXTT13=
EXTT14=
EXTT15=
PLAYORDER=
